# xmcd
#
# Track frame offsets: 
#        150
#        17242
#        31927
#        51158
#        66642
#        80689
#        103066
#        126339
#        144885
#        160565
#        178858
#        199565
#        222018
#        238548
#
# Disc length: 3489 seconds
#
# Revision: 0
# Processed by: cddbd v1.5.2PL0 Copyright (c) Steve Scherf et al.
# Submitted via: ExactAudioCopy v1.3
#
DISCID=c20d9f0e
DTITLE=柳ジョージ&レイニーウッド - LEGACY - Live'79 and Ultimate Best Disc 2 QYCI-10
DTITLE=011
DYEAR=1900
DGENRE=Blues
TTITLE0=CROSS-EYED WOMAN
TTITLE1=酔って候
TTITLE2=雨に泣いてる
TTITLE3=FENCEの向うのアメリカ
TTITLE4=ハーバー・フリーウェイ
TTITLE5=さらばミシシッピー
TTITLE6=青い瞳のステラ、1962年夏…
TTITLE7=微笑の法則 ~スマイル・オン・ミー~
TTITLE8=ヘイ・ダーリン
TTITLE9=「祭ばやしが聞こえる」のテーマ
TTITLE10=港亭
TTITLE11=プリズナー
TTITLE12=遺言
TTITLE13=星空の南十字星 (SPECIAL TRACK)
EXTD=
EXTT0=
EXTT1=
EXTT2=
EXTT3=
EXTT4=
EXTT5=
EXTT6=
EXTT7=
EXTT8=
EXTT9=
EXTT10=
EXTT11=
EXTT12=
EXTT13=
PLAYORDER=
